<?xml version="1.0" encoding="UTF-8" standalone="no"?>
<svg width="523px" height="193px" viewBox="0 0 523 193" version="1.1" xmlns="http://www.w3.org/2000/svg" xmlns:xlink="http://www.w3.org/1999/xlink" xmlns:sketch="http://www.bohemiancoding.com/sketch/ns">
    <!-- Generator: Sketch 3.5.2 (25235) - http://www.bohemiancoding.com/sketch -->
    <title>documents</title>
    <desc>Created with Sketch.</desc>
    <defs>
        <filter x="-50%" y="-50%" width="200%" height="200%" filterUnits="objectBoundingBox" id="filter-1">
            <feOffset dx="1" dy="1" in="SourceAlpha" result="shadowOffsetOuter1"></feOffset>
            <feGaussianBlur stdDeviation="1" in="shadowOffsetOuter1" result="shadowBlurOuter1"></feGaussianBlur>
            <feColorMatrix values="0 0 0 0 0.4   0 0 0 0 0.4   0 0 0 0 0.4  0 0 0 0.35 0" in="shadowBlurOuter1" type="matrix" result="shadowMatrixOuter1"></feColorMatrix>
            <feMerge>
                <feMergeNode in="shadowMatrixOuter1"></feMergeNode>
                <feMergeNode in="SourceGraphic"></feMergeNode>
            </feMerge>
        </filter>
        <rect id="path-2" x="0" y="0" width="163.764231" height="187.04631"></rect>
        <filter x="-50%" y="-50%" width="200%" height="200%" filterUnits="objectBoundingBox" id="filter-4">
            <feOffset dx="1" dy="1" in="SourceAlpha" result="shadowOffsetOuter1"></feOffset>
            <feGaussianBlur stdDeviation="1" in="shadowOffsetOuter1" result="shadowBlurOuter1"></feGaussianBlur>
            <feColorMatrix values="0 0 0 0 0.4   0 0 0 0 0.4   0 0 0 0 0.4  0 0 0 0.35 0" in="shadowBlurOuter1" type="matrix" result="shadowMatrixOuter1"></feColorMatrix>
            <feMerge>
                <feMergeNode in="shadowMatrixOuter1"></feMergeNode>
                <feMergeNode in="SourceGraphic"></feMergeNode>
            </feMerge>
        </filter>
        <rect id="path-5" x="0" y="0" width="163.764231" height="187.137994"></rect>
        <filter x="-50%" y="-50%" width="200%" height="200%" filterUnits="objectBoundingBox" id="filter-7">
            <feOffset dx="1" dy="1" in="SourceAlpha" result="shadowOffsetOuter1"></feOffset>
            <feGaussianBlur stdDeviation="1" in="shadowOffsetOuter1" result="shadowBlurOuter1"></feGaussianBlur>
            <feColorMatrix values="0 0 0 0 0.4   0 0 0 0 0.4   0 0 0 0 0.4  0 0 0 0.35 0" in="shadowBlurOuter1" type="matrix" result="shadowMatrixOuter1"></feColorMatrix>
            <feMerge>
                <feMergeNode in="shadowMatrixOuter1"></feMergeNode>
                <feMergeNode in="SourceGraphic"></feMergeNode>
            </feMerge>
        </filter>
        <path id="path-8" d="M1,34 L80,34 L80,0 L1,0 L1,34 Z"></path>
        <path id="path-10" d="M1,34 L80,34 L80,0 L1,0 L1,34 Z"></path>
    </defs>
    <g id="Welcome" stroke="none" stroke-width="1" fill="none" fill-rule="evenodd" sketch:type="MSPage">
        <g id="Desktop" sketch:type="MSArtboardGroup" transform="translate(-226.000000, -586.000000)">
            <g id="documents" sketch:type="MSLayerGroup" transform="translate(227.000000, 587.733398)">
                <g id="3" transform="translate(355.000000, 0.266602)">
                    <mask id="mask-3" sketch:name="Mask" fill="white">
                        <use xlink:href="#path-2"></use>
                    </mask>
                    <use id="Mask" fill="#F7F7F7" filter="url(#filter-1)" sketch:type="MSShapeGroup" xlink:href="#path-2"></use>
                    <text id="Discussion" sketch:type="MSTextLayer" mask="url(#mask-3)" font-family="Tide Sans" font-size="16" font-weight="473" sketch:alignment="middle" line-spacing="18" fill="#666666">
                        <tspan x="35.8261719" y="112">Discussion</tspan>
                        <tspan x="56.9381719" y="130">Guide</tspan>
                    </text>
                    <g id="Question" mask="url(#mask-3)" sketch:type="MSShapeGroup">
                        <g transform="translate(57.000000, 43.000000)">
                            <path d="M25,50 C38.8071187,50 50,38.8071187 50,25 C50,11.1928813 38.8071187,0 25,0 C11.1928813,0 0,11.1928813 0,25 C0,38.8071187 11.1928813,50 25,50 Z" id="Oval-25" stroke="none" fill="#666666" fill-rule="evenodd"></path>
                            <path d="M13,13.0001864 L13,32.7412577 L18.9438887,32.7412577 L18.9438887,38 L29.3200365,32.698482 L38,32.698482 L38,13 L13,13.0001864 Z" id="question" stroke="#FAFAFA" stroke-width="3" fill="none"></path>
                        </g>
                    </g>
                </g>
                <g id="2" transform="translate(177.500000, 0.000000)">
                    <mask id="mask-6" sketch:name="Mask" fill="white">
                        <use xlink:href="#path-5"></use>
                    </mask>
                    <use id="Mask" fill="#F7F7F7" filter="url(#filter-4)" sketch:type="MSShapeGroup" xlink:href="#path-5"></use>
                    <text id="Participant" sketch:type="MSTextLayer" mask="url(#mask-6)" font-family="Tide Sans" font-size="16" font-weight="473" sketch:alignment="middle" line-spacing="18" fill="#666666">
                        <tspan x="32.9547297" y="111">Participant</tspan>
                        <tspan x="42.9147297" y="129">Screener</tspan>
                    </text>
                    <g id="Screen" mask="url(#mask-6)">
                        <g transform="translate(57.000000, 43.000000)">
                            <circle id="Oval-25" fill="#666666" sketch:type="MSShapeGroup" cx="25" cy="25" r="25"></circle>
                            <g id="Icon" stroke-width="1" fill="none" sketch:type="MSLayerGroup" transform="translate(13.000000, 13.000000)">
                                <rect id="Rectangle-27" stroke="#FAFAFA" stroke-width="2" sketch:type="MSShapeGroup" x="0.587125526" y="0" width="24.0384615" height="5.76923077"></rect>
                                <rect id="Rectangle-27" stroke="#FAFAFA" stroke-width="2" sketch:type="MSShapeGroup" x="0.587125526" y="9.61538462" width="24.0384615" height="5.76923077"></rect>
                                <rect id="Rectangle-27" stroke="#FAFAFA" sketch:type="MSShapeGroup" x="0.587125526" y="19.2307692" width="24.0384615" height="5.76923077"></rect>
                            </g>
                        </g>
                    </g>
                </g>
                <g id="1">
                    <rect id="Mask" fill="#F7F7F7" filter="url(#filter-7)" sketch:type="MSShapeGroup" x="0" y="0" width="164" height="188"></rect>
                    <text id="Research-" sketch:type="MSTextLayer" font-family="Tide Sans" font-size="16" font-weight="473" sketch:alignment="middle" line-spacing="18" fill="#666666">
                        <tspan x="39.6904594" y="112">Research </tspan>
                        <tspan x="60.8904594" y="130">Plan </tspan>
                    </text>
                    <g id="Search" transform="translate(57.125000, 44.000000)" sketch:type="MSShapeGroup">
                        <path d="M24.8789613,49.9943604 C38.4916136,49.9943604 49.5268486,38.9378629 49.5268486,25.298982 C49.5268486,11.6601011 38.4916136,0.603603558 24.8789613,0.603603558 C11.266309,0.603603558 0.231073944,11.6601011 0.231073944,25.298982 C0.231073944,38.9378629 11.266309,49.9943604 24.8789613,49.9943604 Z" id="circle" fill="#666666"></path>
                        <path d="M28.2672658,31.0842545 C26.610355,32.2992594 24.5718496,33.0157832 22.3676416,33.0157832 C16.8160418,33.0157832 12.315581,28.4704911 12.315581,22.863589 C12.315581,17.256687 16.8160418,12.7113948 22.3676416,12.7113948 C27.9192414,12.7113948 32.4197022,17.256687 32.4197022,22.863589 C32.4197022,24.9863462 31.774625,26.9569367 30.6716533,28.5863131 L37.315581,35.2964243 L34.8767355,37.7595644 L28.2672658,31.0842545 Z M22.3676416,29.7670811 C26.1427295,29.7670811 29.2030428,26.6762824 29.2030428,22.863589 C29.2030428,19.0508956 26.1427295,15.960097 22.3676416,15.960097 C18.5925537,15.960097 15.5322404,19.0508956 15.5322404,22.863589 C15.5322404,26.6762824 18.5925537,29.7670811 22.3676416,29.7670811 Z" id="search" stroke="#FAFAFA" fill="#FAFAFA"></path>
                    </g>
                </g>
                <g id="arrow2" transform="translate(174.247131, 82.750000) scale(1, -1) rotate(24.000000) translate(-174.247131, -82.750000) translate(134.247131, 65.750000)">
                    <path d="M4.5,25.5 C4.5,25.5 26.2168,30.721 60.7904,10.319" id="Stroke-1" stroke="#9B9B9B" stroke-width="1.4" stroke-linecap="round" stroke-linejoin="round" sketch:type="MSShapeGroup"></path>
                    <mask id="mask-9" sketch:name="Clip 4" fill="white">
                        <use xlink:href="#path-8"></use>
                    </mask>
                    <g id="Clip-4"></g>
                    <path d="M65.66386,7.25597 L59.63766,8.49212 L61.93638,12.14975 L65.66386,7.25597 Z" id="Fill-3" fill="#9B9B9B" sketch:type="MSShapeGroup" mask="url(#mask-9)"></path>
                    <path d="M65.6639,7.256 L59.6377,8.492 L61.9364,12.15 L65.6639,7.256 Z" id="Stroke-5" stroke="#9B9B9B" stroke-width="2" sketch:type="MSShapeGroup" mask="url(#mask-9)"></path>
                </g>
                <g id="arrow1" transform="translate(356.247131, 82.750000) scale(1, -1) rotate(24.000000) translate(-356.247131, -82.750000) translate(316.247131, 65.750000)">
                    <path d="M4.5,25.5 C4.5,25.5 26.2168,30.721 60.7904,10.319" id="Stroke-1" stroke="#9B9B9B" stroke-width="1.4" stroke-linecap="round" stroke-linejoin="round" sketch:type="MSShapeGroup"></path>
                    <mask id="mask-11" sketch:name="Clip 4" fill="white">
                        <use xlink:href="#path-10"></use>
                    </mask>
                    <g id="Clip-4"></g>
                    <path d="M65.66386,7.25597 L59.63766,8.49212 L61.93638,12.14975 L65.66386,7.25597 Z" id="Fill-3" fill="#9B9B9B" sketch:type="MSShapeGroup" mask="url(#mask-11)"></path>
                    <path d="M65.6639,7.256 L59.6377,8.492 L61.9364,12.15 L65.6639,7.256 Z" id="Stroke-5" stroke="#9B9B9B" stroke-width="2" sketch:type="MSShapeGroup" mask="url(#mask-11)"></path>
                </g>
            </g>
        </g>
    </g>
</svg>