<?xml version="1.0" encoding="UTF-8" standalone="no"?>
<svg width="70px" height="71px" viewBox="0 0 70 71" version="1.1" xmlns="http://www.w3.org/2000/svg" xmlns:xlink="http://www.w3.org/1999/xlink">
    <!-- Generator: Sketch 41.2 (35397) - http://www.bohemiancoding.com/sketch -->
    <title>mobile</title>
    <desc>Created with Sketch.</desc>
    <defs></defs>
    <g id="Site-Graphics" stroke="none" stroke-width="1" fill="none" fill-rule="evenodd">
        <g id="Icons" transform="translate(-821.000000, -738.000000)">
            <g id="mobile" transform="translate(821.000000, 738.882812)">
                <path d="M35,70 C54.3299662,70 70,54.3299662 70,35 C70,15.6700338 54.3299662,0 35,0 C15.6700338,0 0,15.6700338 0,35 C0,54.3299662 15.6700338,70 35,70 L35,70 Z" id="circle-bg" fill="#F4AA1B"></path>
                <path d="M20,20.0642978 C20,18.9242176 21.0326679,18 22.2794992,18 L47.7205008,18 C48.9794334,18 50,18.9170512 50,20.0642978 L50,48.9357022 C50,50.0757824 48.9673321,51 47.7205008,51 L22.2794992,51 C21.0205666,51 20,50.0829488 20,48.9357022 L20,20.0642978 L20,20.0642978 L20,20.0642978 L20,20.0642978 Z M44.0669283,22 C45.1345343,22 46,22.7894908 46,23.7579515 L46,45.2420485 C46,46.2129383 45.1375739,47 44.0669283,47 L25.9330717,47 C24.8654657,47 24,46.2105092 24,45.2420485 L24,23.7579515 C24,22.7870617 24.8624261,22 25.9330717,22 L44.0669283,22 Z M35,43 C36.1045695,43 37,42.1045695 37,41 C37,39.8954305 36.1045695,39 35,39 C33.8954305,39 33,39.8954305 33,41 C33,42.1045695 33.8954305,43 35,43 L35,43 L35,43 L35,43 Z" id="Mobile-Device" fill="#FAFAFA"></path>
            </g>
        </g>
    </g>
</svg>