<?xml version="1.0" encoding="UTF-8" standalone="no"?>
<svg width="70px" height="70px" viewBox="0 0 70 70" version="1.1" xmlns="http://www.w3.org/2000/svg" xmlns:xlink="http://www.w3.org/1999/xlink" xmlns:sketch="http://www.bohemiancoding.com/sketch/ns">
    <!-- Generator: Sketch 3.5.1 (25234) - http://www.bohemiancoding.com/sketch -->
    <title>Search</title>
    <desc>Created with Sketch.</desc>
    <defs></defs>
    <g id="Page-1" stroke="none" stroke-width="1" fill="none" fill-rule="evenodd" sketch:type="MSPage">
        <g id="Search" sketch:type="MSLayerGroup">
            <circle id="Mask" fill="#F4AA1B" sketch:type="MSShapeGroup" cx="35" cy="35" r="35"></circle>
            <path d="M39.8363369,42.6217842 C37.775925,44.1177722 35.2409902,45 32.5,45 C25.5964406,45 20,39.4035594 20,32.5 C20,25.5964406 25.5964406,20 32.5,20 C39.4035594,20 45,25.5964406 45,32.5 C45,35.113668 44.1978296,37.5399791 42.8262555,39.5461666 L51.0881532,47.8080643 L48.0553851,50.8408324 L39.8363369,42.6217842 Z M32.5,41 C37.1944204,41 41,37.1944204 41,32.5 C41,27.8055796 37.1944204,24 32.5,24 C27.8055796,24 24,27.8055796 24,32.5 C24,37.1944204 27.8055796,41 32.5,41 Z" id="search" stroke="#FAFAFA" fill="#FAFAFA" sketch:type="MSShapeGroup"></path>
        </g>
    </g>
</svg>